<?xml version="1.0" encoding="utf-8"?><svg version="1.1" id="Layer_1" xmlns="http://www.w3.org/2000/svg" xmlns:xlink="http://www.w3.org/1999/xlink" x="0px" y="0px" viewBox="0 0 122.88 92.2" style="enable-background:new 0 0 122.88 92.2" xml:space="preserve"><style type="text/css">.st0{fill-rule:evenodd;clip-rule:evenodd;}</style><g><path class="st0" d="M0,0h122.88v22.93c0,4.01-2.84,7.39-6.62,8.22c0,0.06,0.01,0.12,0.01,0.18v6.04c0,15.08-6.17,28.79-16.1,38.73 S76.52,92.2,61.44,92.2h0c-15.08,0-28.79-6.17-38.73-16.1c-9.94-9.94-16.1-23.65-16.1-38.73v-6.04c0-0.06,0-0.12,0.01-0.18 C2.84,30.33,0,26.95,0,22.94V0L0,0z M61.44,57.57c3.23,0,5.86,2.62,5.86,5.86c0,3.23-2.62,5.86-5.86,5.86 c-3.23,0-5.86-2.62-5.86-5.86C55.58,60.2,58.2,57.57,61.44,57.57L61.44,57.57z M53.39,55.38c0.59-0.6,1.56-0.6,2.16,0 c0.6,0.6,0.6,1.56,0,2.16c-0.59,0.6-1.56,0.6-2.16,0C52.8,56.94,52.8,55.97,53.39,55.38L53.39,55.38z M50.06,63.43 c0-0.84,0.68-1.52,1.52-1.52c0.84,0,1.52,0.68,1.52,1.52s-0.68,1.52-1.52,1.52C50.75,64.95,50.06,64.27,50.06,63.43L50.06,63.43z M53.41,71.48c-0.6-0.6-0.6-1.56,0-2.16c0.6-0.6,1.56-0.6,2.16,0s0.6,1.56,0,2.16C54.97,72.07,54,72.07,53.41,71.48L53.41,71.48z M61.46,74.81c-0.84,0-1.52-0.68-1.52-1.52c0-0.84,0.68-1.52,1.52-1.52s1.52,0.68,1.52,1.52C62.99,74.12,62.3,74.81,61.46,74.81 L61.46,74.81z M69.51,71.46c-0.6,0.6-1.56,0.6-2.16,0c-0.6-0.6-0.6-1.56,0-2.16c0.6-0.6,1.56-0.6,2.16,0 C70.11,69.9,70.11,70.87,69.51,71.46L69.51,71.46z M72.84,63.41c0,0.84-0.68,1.52-1.52,1.52c-0.84,0-1.52-0.68-1.52-1.52 c0-0.84,0.68-1.52,1.52-1.52C72.15,61.88,72.84,62.57,72.84,63.41L72.84,63.41z M69.49,55.36c0.6,0.6,0.6,1.56,0,2.16 c-0.6,0.6-1.56,0.6-2.16,0c-0.6-0.6-0.6-1.56,0-2.16S68.9,54.76,69.49,55.36L69.49,55.36z M61.44,52.03c0.84,0,1.52,0.68,1.52,1.52 c0,0.84-0.68,1.52-1.52,1.52c-0.84,0-1.52-0.68-1.52-1.52C59.92,52.72,60.6,52.03,61.44,52.03L61.44,52.03z M111.66,37.37v-3.74 H11.22v3.74c0,13.81,5.65,26.36,14.75,35.47c9.1,9.1,21.66,14.75,35.47,14.75h0c13.81,0,26.36-5.65,35.47-14.75 C106.01,63.74,111.66,51.18,111.66,37.37L111.66,37.37z M61.44,44.13c5.33,0,10.16,2.16,13.65,5.65c3.49,3.49,5.65,8.32,5.65,13.65 c0,5.33-2.16,10.16-5.65,13.65c-3.49,3.49-8.32,5.65-13.65,5.65c-5.33,0-10.16-2.16-13.65-5.65c-3.49-3.49-5.65-8.32-5.65-13.65 c0-5.33,2.16-10.16,5.65-13.65C51.28,46.29,56.11,44.13,61.44,44.13L61.44,44.13z M71.83,53.04c-2.66-2.66-6.33-4.3-10.39-4.3 c-4.06,0-7.73,1.64-10.39,4.3c-2.66,2.66-4.3,6.33-4.3,10.39c0,4.06,1.64,7.73,4.3,10.39c2.66,2.66,6.33,4.3,10.39,4.3 c4.06,0,7.73-1.64,10.39-4.3c2.66-2.66,4.3-6.33,4.3-10.39C76.13,59.37,74.49,55.7,71.83,53.04L71.83,53.04z"/></g></svg>